<svg xmlns="http://www.w3.org/2000/svg" viewBox="0 0 400 400" fill="none">
  <defs>
    <linearGradient id="g" x1="0%" y1="0%" x2="100%" y2="100%">
      <stop offset="0%" style="stop-color:#0066ff;stop-opacity:0.35"/>
      <stop offset="50%" style="stop-color:#00c6ff;stop-opacity:0.25"/>
      <stop offset="100%" style="stop-color:#7c3aed;stop-opacity:0.35"/>
    </linearGradient>
    <filter id="blur" x="-20%" y="-20%" width="140%" height="140%">
      <feGaussianBlur stdDeviation="24"/>
    </filter>
  </defs>
  <circle cx="200" cy="200" r="160" fill="url(#g)" filter="url(#blur)" opacity="0.9"/>
  <g stroke="#1e3a5f" stroke-width="2" stroke-linecap="round" opacity="0.85">
    <path d="M200 80 L260 140 L200 200 L140 140 Z"/>
    <path d="M200 200 L280 220 L240 300 L160 300 L120 220 Z"/>
    <line x1="200" y1="80" x2="200" y2="200"/>
    <line x1="140" y1="140" x2="120" y2="220"/>
    <line x1="260" y1="140" x2="280" y2="220"/>
  </g>
  <g fill="#0066ff" opacity="0.9">
    <circle cx="200" cy="80" r="8"/>
    <circle cx="140" cy="140" r="6"/>
    <circle cx="260" cy="140" r="6"/>
    <circle cx="200" cy="200" r="10"/>
    <circle cx="120" cy="220" r="5"/>
    <circle cx="280" cy="220" r="5"/>
    <circle cx="160" cy="300" r="5"/>
    <circle cx="240" cy="300" r="5"/>
  </g>
  <path d="M300 100 Q340 120 320 160 Q300 200 340 220" stroke="#7c3aed" stroke-width="1.5" fill="none" opacity="0.5" stroke-dasharray="6 8"/>
  <path d="M90 180 Q70 200 95 240" stroke="#00c6ff" stroke-width="1.5" fill="none" opacity="0.5" stroke-dasharray="6 8"/>
</svg>
